<svg width="64" height="64" viewBox="0 0 64 64" fill="none" xmlns="http://www.w3.org/2000/svg">
<path d="M12.8604 16.6344C17.8109 11.835 25.726 11.8209 30.6219 16.5547L30.7834 16.7665L31.8148 18.1182L33.0274 16.9263L33.328 16.6309C38.3026 11.8118 46.2677 11.8221 51.1566 16.6237C56.0408 21.4952 56.0407 29.2861 51.1565 34.1576C51.1553 34.1588 51.154 34.16 51.1528 34.1613L32.052 52.9362L13.1721 34.3783L12.1206 35.4481L13.1721 34.3783L12.8678 34.0792C7.97878 29.2736 7.92446 21.4197 12.8604 16.6344Z" stroke="black" stroke-width="3" stroke-miterlimit="10"/>
<path d="M12.8008 33.9196L24.3208 33.9196L29.4408 25.5996L32.6408 39.6796L37.1208 33.9196L51.2008 33.9196" stroke="black" stroke-width="3"/>
</svg>
