<svg width="64" height="64" viewBox="0 0 64 64" fill="none" xmlns="http://www.w3.org/2000/svg">
<rect width="64" height="64" fill="white"/>
<path d="M47.9994 35.5C47.9994 40 47.9994 32.4919 47.9994 40.5C47.9994 48.5081 41.5075 55 33.4994 55C25.7623 55 19.4406 48.9402 19.0215 41.3079" stroke="black" stroke-width="3" stroke-miterlimit="10"/>
<path d="M38 32L38 11.5C38 9.567 39.567 8 41.5 8V8C43.433 8 45 9.567 45 11.5L45 32" stroke="black" stroke-width="3" stroke-miterlimit="10"/>
<path d="M31.3789 34.9414L20.7497 16.531C19.7832 14.857 20.3567 12.7164 22.0307 11.7499V11.7499C23.7048 10.7834 25.8453 11.357 26.8118 13.031L37.4411 31.4414" stroke="black" stroke-width="3" stroke-miterlimit="10"/>
<path d="M29.9315 39.4839C28.2575 40.4504 26.1169 39.8768 25.1504 38.2028L21.8759 32.5312C20.9094 30.8572 21.483 28.7166 23.157 27.7501V27.7501C24.831 26.7836 26.9716 27.3572 27.9381 29.0312L31.0955 34.5L31.2126 34.7028C32.1791 36.3768 31.6055 38.5174 29.9315 39.4839V39.4839Z" stroke="black" stroke-width="3" stroke-miterlimit="10"/>
<rect x="22.3008" y="47.2339" width="13" height="7" rx="3.5" transform="rotate(-120 22.3008 47.2339)" stroke="black" stroke-width="3" stroke-miterlimit="10"/>
<rect x="31" y="32" width="17" height="7" rx="3.5" fill="white" stroke="black" stroke-width="3" stroke-miterlimit="10"/>
</svg>
