<svg width="152" height="45" viewBox="0 0 152 45" fill="none" xmlns="http://www.w3.org/2000/svg">
<path d="M146.37 0H5.62963C2.52047 0 0 2.5184 0 5.625V39.375C0 42.4816 2.52047 45 5.62963 45H146.37C149.48 45 152 42.4816 152 39.375V5.625C152 2.5184 149.48 0 146.37 0Z" fill="black"/>
<path d="M146.37 0.9C147.625 0.9 148.827 1.39781 149.714 2.28392C150.601 3.17003 151.099 4.37185 151.099 5.625V39.375C151.099 40.6281 150.601 41.83 149.714 42.7161C148.827 43.6022 147.625 44.1 146.37 44.1H5.62963C4.37545 44.1 3.17264 43.6022 2.2858 42.7161C1.39896 41.83 0.900741 40.6281 0.900741 39.375V5.625C0.900741 4.37185 1.39896 3.17003 2.2858 2.28392C3.17264 1.39781 4.37545 0.9 5.62963 0.9H146.37ZM146.37 0H5.62963C4.13656 0 2.70464 0.592632 1.64888 1.64752C0.59312 2.70242 0 4.13316 0 5.625V39.375C0 40.8668 0.59312 42.2976 1.64888 43.3525C2.70464 44.4074 4.13656 45 5.62963 45H146.37C147.863 45 149.295 44.4074 150.351 43.3525C151.407 42.2976 152 40.8668 152 39.375V5.625C152 4.13316 151.407 2.70242 150.351 1.64752C149.295 0.592632 147.863 0 146.37 0Z" fill="#A6A6A6"/>
<path d="M36.1527 21.7269C36.1216 18.2722 38.9838 16.5914 39.1146 16.5132C37.4937 14.1518 34.9812 13.8291 34.0983 13.8034C31.9881 13.5815 29.9412 15.065 28.8663 15.065C27.7699 15.065 26.1146 13.8248 24.3305 13.8613C22.0348 13.8966 19.887 15.2247 18.7091 17.2871C16.2782 21.4922 18.0912 27.6717 20.4202 31.0707C21.5853 32.7354 22.9466 34.5941 24.7285 34.5287C26.4718 34.4569 27.123 33.4182 29.2267 33.4182C31.3112 33.4182 31.9227 34.5287 33.74 34.4869C35.6109 34.4569 36.7888 32.8147 37.9131 31.1351C39.2595 29.2271 39.8001 27.348 39.8216 27.2515C39.7776 27.2365 36.1881 25.8677 36.1527 21.7269Z" fill="white"/>
<path d="M32.7189 11.5676C33.6565 10.396 34.2981 8.80208 34.12 7.18457C32.7629 7.2446 31.0657 8.12249 30.0884 9.26836C29.2238 10.2781 28.4514 11.9331 28.6509 13.4895C30.1753 13.6032 31.7405 12.721 32.7189 11.5676Z" fill="white"/>
<path d="M61.3848 34.2898H58.9485L57.614 30.0998H52.9752L51.704 34.2898H49.332L53.9279 20.0249H56.7665L61.3848 34.2898ZM57.2117 28.3418L56.0048 24.617C55.8771 24.2364 55.6379 23.3403 55.2849 21.9297H55.242C55.1015 22.5364 54.8751 23.4325 54.564 24.617L53.3786 28.3418H57.2117Z" fill="white"/>
<path d="M73.2047 29.0202C73.2047 30.7695 72.7316 32.1523 71.7854 33.1674C70.9379 34.071 69.8854 34.5223 68.6292 34.5223C67.2732 34.5223 66.2991 34.0356 65.7059 33.0623H65.663V38.4808H63.3758V27.3898C63.3758 26.29 63.3468 25.1613 63.291 24.0036H65.3025L65.4302 25.634H65.4731C66.2358 24.4056 67.3934 23.7925 68.9468 23.7925C70.1612 23.7925 71.1749 24.2716 71.986 25.231C72.7991 26.1914 73.2047 27.4541 73.2047 29.0202ZM70.8746 29.1038C70.8746 28.1026 70.6493 27.2773 70.1966 26.6277C69.702 25.9502 69.0379 25.6115 68.2055 25.6115C67.6412 25.6115 67.1284 25.8002 66.6703 26.1721C66.2111 26.5473 65.9108 27.0371 65.7702 27.6438C65.6994 27.9268 65.664 28.1584 65.664 28.3406V30.0556C65.664 30.8038 65.8936 31.4352 66.3528 31.9508C66.8119 32.4664 67.4084 32.7236 68.1422 32.7236C69.0036 32.7236 69.6741 32.3913 70.1536 31.7289C70.6343 31.0654 70.8746 30.1907 70.8746 29.1038Z" fill="white"/>
<path d="M85.0454 29.0202C85.0454 30.7695 84.5723 32.1523 83.625 33.1674C82.7786 34.071 81.7262 34.5223 80.4699 34.5223C79.1139 34.5223 78.1398 34.0356 77.5477 33.0623H77.5047V38.4808H75.2176V27.3898C75.2176 26.29 75.1886 25.1613 75.1328 24.0036H77.1443L77.272 25.634H77.3149C78.0765 24.4056 79.2341 23.7925 80.7886 23.7925C82.0019 23.7925 83.0157 24.2716 83.8288 25.231C84.6388 26.1914 85.0454 27.4541 85.0454 29.0202ZM82.7153 29.1038C82.7153 28.1026 82.4889 27.2773 82.0362 26.6277C81.5417 25.9502 80.8797 25.6115 80.0462 25.6115C79.4808 25.6115 78.9691 25.8002 78.51 26.1721C78.0508 26.5473 77.7515 27.0371 77.611 27.6438C77.5412 27.9268 77.5047 28.1584 77.5047 28.3406V30.0556C77.5047 30.8038 77.7343 31.4352 78.1913 31.9508C78.6505 32.4653 79.247 32.7236 79.9829 32.7236C80.8443 32.7236 81.5148 32.3913 81.9944 31.7289C82.475 31.0654 82.7153 30.1907 82.7153 29.1038Z" fill="white"/>
<path d="M98.2827 30.2895C98.2827 31.5029 97.8611 32.4901 97.0147 33.2523C96.0846 34.0851 94.7897 34.501 93.1258 34.501C91.5896 34.501 90.358 34.2052 89.4258 33.6124L89.9557 31.7077C90.9599 32.3144 92.0616 32.6188 93.2621 32.6188C94.1235 32.6188 94.794 32.4237 95.2757 32.0357C95.7552 31.6476 95.9945 31.1267 95.9945 30.4771C95.9945 29.8983 95.7971 29.4106 95.4012 29.015C95.0075 28.6195 94.3499 28.2518 93.4316 27.912C90.932 26.9805 89.6833 25.616 89.6833 23.8216C89.6833 22.649 90.121 21.6875 90.9974 20.9393C91.8707 20.19 93.0357 19.8159 94.4926 19.8159C95.7917 19.8159 96.8709 20.0421 97.7324 20.4934L97.1606 22.3563C96.356 21.919 95.4463 21.7003 94.4282 21.7003C93.6236 21.7003 92.995 21.8986 92.5444 22.2931C92.1635 22.6458 91.9726 23.0756 91.9726 23.5847C91.9726 24.1486 92.1904 24.6148 92.6281 24.9814C93.0089 25.3202 93.7009 25.6868 94.705 26.0823C95.9333 26.5764 96.8355 27.1542 97.4159 27.8166C97.9942 28.4769 98.2827 29.3034 98.2827 30.2895Z" fill="white"/>
<path d="M105.846 25.7189H103.325V30.7129C103.325 31.9831 103.769 32.6177 104.659 32.6177C105.068 32.6177 105.407 32.5823 105.675 32.5116L105.738 34.247C105.288 34.4153 104.694 34.5 103.96 34.5C103.056 34.5 102.35 34.2245 101.841 33.6746C101.333 33.1236 101.078 32.1996 101.078 30.9016V25.7168H99.5762V24.0017H101.078V22.1184L103.325 21.4409V24.0017H105.846V25.7189Z" fill="white"/>
<path d="M117.218 29.0624C117.218 30.6434 116.765 31.9415 115.862 32.9566C114.915 34.0017 113.657 34.5227 112.09 34.5227C110.579 34.5227 109.377 34.0221 108.48 33.0209C107.583 32.0198 107.135 30.756 107.135 29.2328C107.135 27.6389 107.596 26.3333 108.522 25.3182C109.446 24.302 110.692 23.7939 112.259 23.7939C113.77 23.7939 114.985 24.2945 115.903 25.2968C116.78 26.269 117.218 27.5242 117.218 29.0624ZM114.845 29.1363C114.845 28.1877 114.642 27.3741 114.231 26.6956C113.752 25.8745 113.066 25.465 112.178 25.465C111.259 25.465 110.56 25.8756 110.081 26.6956C109.67 27.3752 109.467 28.2016 109.467 29.1792C109.467 30.1278 109.67 30.9414 110.081 31.6189C110.575 32.4399 111.266 32.8494 112.158 32.8494C113.031 32.8494 113.716 32.4314 114.211 31.5974C114.632 30.9061 114.845 30.0839 114.845 29.1363Z" fill="white"/>
<path d="M124.652 26.0135C124.426 25.9717 124.184 25.9502 123.931 25.9502C123.127 25.9502 122.505 26.2536 122.067 26.8613C121.686 27.3973 121.495 28.0747 121.495 28.8926V34.2897H119.209L119.23 27.2429C119.23 26.0574 119.201 24.978 119.145 24.0047H121.137L121.22 25.9727H121.284C121.525 25.2964 121.906 24.7518 122.427 24.3434C122.937 23.9758 123.487 23.7925 124.08 23.7925C124.292 23.7925 124.483 23.8075 124.652 23.8343V26.0135Z" fill="white"/>
<path d="M134.881 28.6603C134.881 29.0697 134.854 29.4149 134.798 29.6968H127.936C127.963 30.713 128.294 31.4901 128.931 32.0261C129.51 32.5052 130.257 32.7453 131.176 32.7453C132.192 32.7453 133.119 32.5834 133.952 32.2587L134.31 33.8451C133.336 34.2696 132.186 34.4807 130.859 34.4807C129.263 34.4807 128.01 34.0112 127.098 33.0733C126.188 32.1354 125.732 30.8759 125.732 29.2959C125.732 27.7449 126.156 26.4532 127.005 25.4231C127.893 24.3233 129.093 23.7734 130.604 23.7734C132.088 23.7734 133.211 24.3233 133.974 25.4231C134.578 26.2967 134.881 27.3772 134.881 28.6603ZM132.7 28.0675C132.715 27.3901 132.566 26.8048 132.256 26.3106C131.86 25.675 131.252 25.3577 130.433 25.3577C129.686 25.3577 129.077 25.6675 128.613 26.2892C128.232 26.7834 128.006 27.3761 127.936 28.0664H132.7V28.0675Z" fill="white"/>
<path d="M57.5307 16.539H56.341V14.7658H51.5871V16.539H50.3775L50.3379 13.7653H50.9179C51.2054 13.4879 51.4351 13.0851 51.6069 12.5568C51.7788 12.0251 51.8895 11.4242 51.939 10.7539L52.1274 7.5542H56.678V13.7653H57.5951L57.5307 16.539ZM52.3356 13.7653H55.4288V8.56462H53.3221L53.2031 10.5954C53.1139 11.9525 52.8247 13.0091 52.3356 13.7653Z" fill="white"/>
<path d="M58.7025 12.0367C58.7025 11.5117 58.8066 11.0395 59.0148 10.6201C59.223 10.1975 59.5155 9.87387 59.8922 9.64933C60.269 9.42149 60.7019 9.30757 61.191 9.30757C61.9147 9.30757 62.5013 9.54037 62.9508 10.006C63.4035 10.4715 63.6481 11.089 63.6844 11.8584L63.6894 12.1407C63.6894 12.669 63.5869 13.1412 63.382 13.5573C63.1804 13.9733 62.8896 14.2953 62.5096 14.5231C62.1328 14.751 61.6966 14.8649 61.2009 14.8649C60.4441 14.8649 59.8377 14.6139 59.3816 14.112C58.9289 13.6068 58.7025 12.9348 58.7025 12.0961V12.0367ZM59.9071 12.1407C59.9071 12.6921 60.0211 13.1247 60.2491 13.4384C60.4772 13.7488 60.7944 13.904 61.2009 13.904C61.6074 13.904 61.923 13.7455 62.1477 13.4285C62.3757 13.1115 62.4898 12.6476 62.4898 12.0367C62.4898 11.4952 62.3724 11.0659 62.1378 10.7489C61.9065 10.4319 61.5909 10.2734 61.191 10.2734C60.7977 10.2734 60.4854 10.4303 60.2541 10.744C60.0228 11.0543 59.9071 11.5199 59.9071 12.1407Z" fill="white"/>
<path d="M67.4191 13.904C67.7198 13.904 67.9693 13.8165 68.1676 13.6415C68.3659 13.4665 68.4717 13.2502 68.4849 12.9926H69.6201C69.6068 13.3261 69.5027 13.6382 69.3078 13.9288C69.1128 14.216 68.8484 14.4439 68.5146 14.6123C68.1808 14.7807 67.8206 14.8649 67.434 14.8649C66.6838 14.8649 66.0889 14.6222 65.6494 14.1368C65.2099 13.6514 64.9901 12.9811 64.9901 12.1258V12.002C64.9901 11.1864 65.2082 10.5343 65.6445 10.0456C66.0807 9.55357 66.6755 9.30757 67.429 9.30757C68.0668 9.30757 68.5857 9.49414 68.9856 9.86727C69.3887 10.2371 69.6002 10.7241 69.6201 11.3284H68.4849C68.4717 11.0213 68.3659 10.7687 68.1676 10.5706C67.9727 10.3725 67.7231 10.2734 67.4191 10.2734C67.0291 10.2734 66.7284 10.4154 66.5169 10.6994C66.3054 10.98 66.198 11.4077 66.1947 11.9822V12.1754C66.1947 12.7565 66.2988 13.1908 66.507 13.478C66.7185 13.762 67.0225 13.904 67.4191 13.904Z" fill="white"/>
<path d="M75.2583 10.3626H73.5183V14.7658H72.3138V10.3626H70.5936V9.40663H75.2583V10.3626Z" fill="white"/>
<path d="M78.5072 13.0422L79.5977 9.40663H80.8816L78.7501 15.5781C78.4229 16.4796 77.8677 16.9303 77.0845 16.9303C76.9093 16.9303 76.716 16.9006 76.5045 16.8411V15.91L76.7325 15.9248C77.0366 15.9248 77.2646 15.8687 77.4166 15.7564C77.5719 15.6475 77.6942 15.4625 77.7834 15.2017L77.9569 14.7411L76.0732 9.40663H77.372L78.5072 13.0422Z" fill="white"/>
<path d="M86.6339 14.7658H85.4293V10.3774H83.3374V14.7658H82.1328V9.40663H86.6339V14.7658Z" fill="white"/>
<path d="M92.9661 14.7658H91.7615V12.6013H89.6746V14.7658H88.47V9.40663H89.6746V11.6405H91.7615V9.40663H92.9661V14.7658Z" fill="white"/>
<path d="M94.5345 12.0367C94.5345 11.5117 94.6386 11.0395 94.8468 10.6201C95.055 10.1975 95.3475 9.87387 95.7242 9.64933C96.101 9.42149 96.5339 9.30757 97.023 9.30757C97.7467 9.30757 98.3333 9.54037 98.7828 10.006C99.2355 10.4715 99.4801 11.089 99.5164 11.8584L99.5214 12.1407C99.5214 12.669 99.4189 13.1412 99.214 13.5573C99.0124 13.9733 98.7216 14.2953 98.3416 14.5231C97.9648 14.751 97.5286 14.8649 97.0329 14.8649C96.2761 14.8649 95.6697 14.6139 95.2136 14.112C94.7609 13.6068 94.5345 12.9348 94.5345 12.0961V12.0367ZM95.7391 12.1407C95.7391 12.6921 95.8531 13.1247 96.0811 13.4384C96.3092 13.7488 96.6264 13.904 97.0329 13.904C97.4394 13.904 97.755 13.7455 97.9797 13.4285C98.2077 13.1115 98.3217 12.6476 98.3217 12.0367C98.3217 11.4952 98.2044 11.0659 97.9698 10.7489C97.7385 10.4319 97.4229 10.2734 97.023 10.2734C96.6297 10.2734 96.3174 10.4303 96.0861 10.744C95.8548 11.0543 95.7391 11.5199 95.7391 12.1407Z" fill="white"/>
<path d="M104.175 14.7658V9.40663H106.351C107.085 9.40663 107.643 9.53541 108.027 9.79297C108.41 10.0472 108.602 10.4138 108.602 10.8925C108.602 11.1402 108.524 11.3631 108.369 11.5612C108.217 11.756 107.99 11.9063 107.69 12.0119C108.04 12.0846 108.318 12.2315 108.522 12.4527C108.727 12.674 108.83 12.9348 108.83 13.2353C108.83 13.7339 108.645 14.1137 108.275 14.3745C107.908 14.6354 107.379 14.7658 106.688 14.7658H104.175ZM105.38 12.4825V13.8148H106.698C107.316 13.8148 107.625 13.5936 107.625 13.1511C107.625 12.7054 107.311 12.4825 106.683 12.4825H105.38ZM105.38 11.6206H106.371C107.055 11.6206 107.397 11.4192 107.397 11.0164C107.397 10.5937 107.073 10.3758 106.426 10.3626H105.38V11.6206Z" fill="white"/>
</svg>
