<svg width="32" height="32" viewBox="0 0 32 32" fill="none" xmlns="http://www.w3.org/2000/svg">
<path fill-rule="evenodd" clip-rule="evenodd" d="M14.3873 4.42764C14.8777 4.14748 15.4339 4 16 4C16.5661 4 17.1223 4.14748 17.6127 4.42764L17.6148 4.42883L22.0465 6.93866C21.6378 7.46566 21.3322 8.07657 21.1598 8.74118L16.6053 6.16178C16.4213 6.05647 16.2125 6.00102 16 6.00102C15.7875 6.00102 15.5787 6.05646 15.3947 6.16177L15.3908 6.164L13.1712 7.42104L20.9026 11.8762C20.9415 11.8986 20.9784 11.9232 21.013 11.9498L21.3226 11.7707C21.5635 12.4067 21.9303 12.9807 22.3927 13.4623L17.0005 16.5815V25.6144L24.3757 21.4375L24.3772 21.4367C24.5604 21.3315 24.7126 21.1806 24.8185 20.9989C24.9247 20.8167 24.9808 20.6101 24.981 20.3997V14.8961C25.31 14.9642 25.6508 15 26 15C26.3425 15 26.6769 14.9656 27 14.9V20.4017C26.9994 20.963 26.8499 21.5143 26.5665 22.0003C26.2831 22.4863 25.8757 22.8898 25.3852 23.1705L25.3813 23.1727L17.6148 27.5712L17.6126 27.5724C17.2553 27.7765 16.8631 27.9102 16.4575 27.9677C16.3205 28.0382 16.1652 28.078 16.0005 28.078C15.836 28.078 15.6807 28.0383 15.5438 27.9679C15.1378 27.9105 14.7451 27.7767 14.3874 27.5724L14.3852 27.5712L6.6187 23.1727L6.6148 23.1705C6.12433 22.8898 5.71694 22.4863 5.43351 22.0003C5.15008 21.5143 5.00058 20.963 5 20.4017V11.5983C5.00058 11.037 5.15008 10.4857 5.43351 9.99971C5.71694 9.51374 6.12433 9.11019 6.6148 8.82953L6.6187 8.8273L14.3852 4.42883L14.3873 4.42764ZM7.019 11.965L15.0005 16.582V25.615L7.6243 21.4375L7.62279 21.4367C7.43961 21.3315 7.28745 21.1806 7.1815 20.9989C7.07533 20.8169 7.01929 20.6104 7.019 20.4001V11.965ZM19.0227 13.1012L11.151 8.56519L8.11161 10.2865L16 14.8497L19.0227 13.1012Z" fill="black"/>
<circle cx="26" cy="10" r="3" fill="#EB5757"/>
</svg>
