<svg width="51" height="21" viewBox="0 0 51 21" fill="none" xmlns="http://www.w3.org/2000/svg">
<path d="M5.79383 6.61707H20.5072C22.0944 6.61707 25.7727 7.02018 25.7727 10.8245C25.7727 13.747 23.3541 15.2838 20.9859 15.2838H19.3231V9.23726H16.9296V17.6773H20.9859C24.4626 17.6773 28.1662 15.2838 28.1662 10.8245C28.1662 6.81862 25.1681 4.22363 20.5072 4.22363H3.42558L3.40039 11.5047H12.4955V9.11129H5.79383V6.61707Z" fill="#828282"/>
<path d="M3.40039 20.8008H5.79383V14.9305H12.4451V12.5371H3.42558L3.40039 20.8008Z" fill="#828282"/>
<path d="M31.7697 12.8899C33.7097 10.0178 37.9927 3.61852 39.6051 1.19989H36.733C35.2969 3.31619 33.1554 6.54103 31.4422 9.08563C31.3918 8.60695 31.2911 8.15345 31.1651 7.72515C29.8046 3.76968 26.8821 1.40144 22.6243 0.897557C19.9285 0.620422 16.1494 0.645616 12.8238 0.645616C12.1435 0.645616 11.4633 0.645616 10.8587 0.645616H0.0251941L0 20.8009H2.39344L2.41863 3.06425H10.8335C11.4633 3.06425 12.1184 3.06425 12.8238 3.06425C16.099 3.03905 19.8025 3.03905 22.3472 3.31619C26.1263 3.74449 27.9906 5.98676 28.8724 8.53136C29.2503 9.6399 29.4015 11.2271 28.8976 12.8647C25.7484 17.4249 24.5138 18.2815 20.3568 18.2815H15.9227V9.2116H13.5292V20.6749H20.3568C26.227 20.6749 27.8647 18.6846 31.7697 12.8899Z" fill="#828282"/>
<path d="M50.7422 16.2916L42.3526 1.22559H39.6316L49.2054 18.4583H35.2227V20.8518H47.7189L49.3061 18.4583L50.7422 16.2916Z" fill="#828282"/>
<path d="M43.285 15.2086H35.374V17.602H47.3664L39.4051 3.39258L27.7402 20.8269H30.6124L39.2287 7.95271L43.285 15.2086Z" fill="#828282"/>
</svg>
