<svg width="152" height="45" viewBox="0 0 152 45" fill="none" xmlns="http://www.w3.org/2000/svg">
<path d="M146.37 0H5.62963C2.52047 0 0 2.5184 0 5.625V39.375C0 42.4816 2.52047 45 5.62963 45H146.37C149.48 45 152 42.4816 152 39.375V5.625C152 2.5184 149.48 0 146.37 0Z" fill="black"/>
<path d="M146.37 0.9C147.625 0.9 148.827 1.39781 149.714 2.28392C150.601 3.17003 151.099 4.37185 151.099 5.625V39.375C151.099 40.6281 150.601 41.83 149.714 42.7161C148.827 43.6022 147.625 44.1 146.37 44.1H5.62963C4.37545 44.1 3.17264 43.6022 2.2858 42.7161C1.39896 41.83 0.900741 40.6281 0.900741 39.375V5.625C0.900741 4.37185 1.39896 3.17003 2.2858 2.28392C3.17264 1.39781 4.37545 0.9 5.62963 0.9H146.37ZM146.37 0H5.62963C4.13656 0 2.70464 0.592632 1.64888 1.64752C0.59312 2.70242 0 4.13316 0 5.625V39.375C0 40.8668 0.59312 42.2976 1.64888 43.3525C2.70464 44.4074 4.13656 45 5.62963 45H146.37C147.863 45 149.295 44.4074 150.351 43.3525C151.407 42.2976 152 40.8668 152 39.375V5.625C152 4.13316 151.407 2.70242 150.351 1.64752C149.295 0.592632 147.863 0 146.37 0Z" fill="#A6A6A6"/>
<path d="M76.7222 24.4685C75.7767 24.473 74.8538 24.7572 74.0698 25.2852C73.2859 25.8133 72.676 26.5616 72.3173 27.4356C71.9586 28.3096 71.867 29.2703 72.0542 30.1963C72.2414 31.1222 72.6989 31.9721 73.369 32.6385C74.0391 33.3049 74.8918 33.7581 75.8194 33.9407C76.747 34.1234 77.708 34.0274 78.5811 33.6649C79.4541 33.3023 80.2001 32.6895 80.725 31.9037C81.2498 31.118 81.5299 30.1944 81.5299 29.2498C81.5391 28.6174 81.4208 27.9897 81.1822 27.404C80.9435 26.8183 80.5893 26.2866 80.1408 25.8405C79.6922 25.3943 79.1583 25.043 78.571 24.8073C77.9837 24.5716 77.355 24.4564 76.7222 24.4685ZM76.7222 32.1523C76.1407 32.1929 75.5605 32.0578 75.0569 31.7646C74.5533 31.4713 74.1496 31.0335 73.8984 30.508C73.6471 29.9825 73.5599 29.3936 73.648 28.8179C73.7362 28.2422 73.9956 27.7064 74.3926 27.2799C74.7896 26.8535 75.3058 26.5563 75.8741 26.4269C76.4424 26.2975 77.0365 26.3419 77.5792 26.5544C78.1219 26.7668 78.5881 27.1375 78.9172 27.6182C79.2462 28.0989 79.423 28.6674 79.4244 29.2498C79.4425 29.6188 79.3865 29.9877 79.2597 30.3347C79.1329 30.6818 78.9378 31 78.6859 31.2705C78.4341 31.541 78.1306 31.7584 77.7933 31.9098C77.456 32.0613 77.0918 32.1437 76.7222 32.1523ZM66.2398 24.4685C65.2939 24.4707 64.3698 24.753 63.5844 25.2798C62.7989 25.8065 62.1874 26.554 61.8269 27.4278C61.4664 28.3017 61.3733 29.2627 61.5592 30.1894C61.7451 31.1162 62.2017 31.967 62.8714 32.6346C63.5411 33.3021 64.3937 33.7564 65.3216 33.94C66.2496 34.1235 67.2111 34.0282 68.0849 33.666C68.9586 33.3038 69.7053 32.6909 70.2306 31.9049C70.7559 31.1189 71.0362 30.1949 71.0362 29.2498C71.0454 28.6174 70.9272 27.9897 70.6885 27.404C70.4499 26.8183 70.0957 26.2866 69.6471 25.8405C69.1986 25.3943 68.6647 25.043 68.0774 24.8073C67.4901 24.5716 66.8613 24.4564 66.2285 24.4685H66.2398ZM66.2398 32.1523C65.6581 32.1952 65.0769 32.0621 64.5719 31.7704C64.0669 31.4787 63.6615 31.0418 63.4085 30.5166C63.1555 29.9915 63.0665 29.4024 63.1533 28.826C63.24 28.2497 63.4984 27.7127 63.8948 27.2852C64.2913 26.8576 64.8073 26.5592 65.3758 26.4288C65.9444 26.2983 66.539 26.3419 67.0824 26.5539C67.6258 26.7659 68.0927 27.1364 68.4223 27.6172C68.752 28.0981 68.9292 28.6669 68.9308 29.2498C68.9489 29.6188 68.8929 29.9877 68.7661 30.3347C68.6392 30.6818 68.4442 31 68.1923 31.2705C67.9405 31.541 67.637 31.7584 67.2997 31.9098C66.9624 32.0613 66.5982 32.1437 66.2285 32.1523H66.2398ZM53.7533 25.9423V27.9673H58.6173C58.541 28.921 58.1442 29.821 57.4914 30.521C57.0047 31.0163 56.4197 31.4043 55.774 31.66C55.1283 31.9158 54.4361 32.0336 53.742 32.006C52.3087 32.006 50.934 31.4371 49.9205 30.4244C48.907 29.4117 48.3376 28.0382 48.3376 26.606C48.3376 25.1738 48.907 23.8003 49.9205 22.7876C50.934 21.7749 52.3087 21.206 53.742 21.206C55.1132 21.1837 56.4372 21.7056 57.4238 22.6573L58.8537 21.2285C58.1877 20.5547 57.3931 20.0213 56.517 19.6599C55.6409 19.2985 54.7011 19.1166 53.7533 19.1248C52.7523 19.0858 51.7538 19.2492 50.8176 19.6051C49.8813 19.961 49.0266 20.5021 48.3046 21.1959C47.5827 21.8897 47.0083 22.7221 46.616 23.643C46.2237 24.5639 46.0215 25.5545 46.0215 26.5554C46.0215 27.5563 46.2237 28.5469 46.616 29.4678C47.0083 30.3887 47.5827 31.221 48.3046 31.9149C49.0266 32.6087 49.8813 33.1498 50.8176 33.5057C51.7538 33.8616 52.7523 34.0249 53.7533 33.986C54.717 34.0295 55.6789 33.8663 56.5742 33.5073C57.4695 33.1483 58.2775 32.6019 58.9438 31.9048C60.1234 30.6098 60.7532 28.9075 60.7002 27.1573C60.7039 26.7309 60.6662 26.3051 60.5876 25.886L53.7533 25.9423ZM104.769 27.5173C104.475 26.6541 103.926 25.9004 103.194 25.356C102.463 24.8115 101.582 24.5021 100.671 24.4685C100.055 24.4673 99.4451 24.5923 98.8795 24.8359C98.3139 25.0794 97.8043 25.4362 97.3822 25.8844C96.9601 26.3325 96.6345 26.8623 96.4254 27.4412C96.2164 28.0201 96.1284 28.6356 96.1669 29.2498C96.1532 29.8785 96.2665 30.5036 96.5 31.0877C96.7335 31.6717 97.0825 32.2028 97.526 32.649C97.9695 33.0953 98.4984 33.4477 99.0813 33.6852C99.6642 33.9226 100.289 34.0402 100.918 34.031C101.706 34.0353 102.482 33.8443 103.178 33.4752C103.873 33.1061 104.467 32.5704 104.904 31.916L103.272 30.791C103.028 31.1969 102.683 31.5326 102.27 31.7653C101.858 31.998 101.392 32.1197 100.918 32.1185C100.431 32.1371 99.9486 32.0086 99.5349 31.7498C99.1213 31.491 98.7951 31.1138 98.5989 30.6673L105.005 28.0235L104.769 27.5173ZM98.2386 29.1148C98.2158 28.7668 98.2627 28.4178 98.3766 28.0881C98.4904 27.7585 98.669 27.4549 98.9017 27.1951C99.1345 26.9352 99.4168 26.7244 99.7322 26.575C100.048 26.4256 100.39 26.3405 100.738 26.3248C101.101 26.3009 101.464 26.3841 101.78 26.5641C102.096 26.7441 102.352 27.0129 102.517 27.3373L98.2386 29.1148ZM93.0368 33.7498H95.1423V19.6873H93.0368V33.7498ZM89.5915 25.5373H89.5127C89.1954 25.1828 88.8066 24.8993 88.372 24.7054C87.9374 24.5115 87.4666 24.4116 86.9906 24.4123C85.7602 24.4719 84.5999 25.0022 83.7502 25.8934C82.9005 26.7846 82.4265 27.9683 82.4265 29.1991C82.4265 30.43 82.9005 31.6137 83.7502 32.5049C84.5999 33.396 85.7602 33.9264 86.9906 33.986C87.4677 33.994 87.9408 33.8975 88.3766 33.7031C88.8123 33.5087 89.2001 33.2213 89.5127 32.861H89.5802V33.5473C89.5802 35.381 88.6007 36.3598 87.0244 36.3598C86.4994 36.3475 85.9899 36.1794 85.5608 35.8769C85.1318 35.5744 84.8025 35.1511 84.6149 34.661L82.7796 35.426C83.1251 36.2657 83.7137 36.9831 84.47 37.4862C85.2263 37.9893 86.1158 38.2552 87.0244 38.2498C89.4902 38.2498 91.5281 36.7985 91.5281 33.266V24.7498H89.5915V25.5373ZM87.182 32.1523C86.4557 32.0883 85.7798 31.7548 85.2874 31.2176C84.795 30.6803 84.5219 29.9783 84.5219 29.2498C84.5219 28.5213 84.795 27.8192 85.2874 27.2819C85.7798 26.7447 86.4557 26.4112 87.182 26.3473C87.5421 26.3657 87.8949 26.456 88.2195 26.6128C88.5441 26.7696 88.8341 26.9897 89.0723 27.2602C89.3105 27.5307 89.4921 27.8461 89.6064 28.1878C89.7207 28.5294 89.7654 28.8905 89.7379 29.2498C89.7686 29.6105 89.7258 29.9738 89.612 30.3176C89.4982 30.6613 89.3158 30.9785 89.0758 31.2498C88.8358 31.5211 88.5433 31.741 88.2158 31.8961C87.8884 32.0512 87.5329 32.1384 87.1708 32.1523H87.182ZM114.632 19.6873H109.599V33.7498H111.705V28.4173H114.643C115.243 28.4603 115.846 28.3794 116.413 28.1796C116.981 27.9797 117.501 27.6652 117.941 27.2557C118.382 26.8462 118.733 26.3504 118.973 25.7992C119.213 25.2481 119.337 24.6534 119.337 24.0523C119.337 23.4511 119.213 22.8565 118.973 22.3053C118.733 21.7542 118.382 21.2584 117.941 20.8488C117.501 20.4393 116.981 20.1248 116.413 19.9249C115.846 19.7251 115.243 19.6442 114.643 19.6873H114.632ZM114.632 26.4373H111.693V21.6448H114.677C115.318 21.6448 115.932 21.899 116.385 22.3516C116.838 22.8041 117.092 23.4179 117.092 24.0579C117.092 24.6979 116.838 25.3117 116.385 25.7642C115.932 26.2168 115.318 26.471 114.677 26.471L114.632 26.4373ZM127.614 24.4123C126.848 24.3665 126.084 24.5455 125.418 24.9272C124.752 25.3089 124.212 25.8768 123.865 26.561L125.734 27.3373C125.918 26.9979 126.197 26.7194 126.537 26.5356C126.877 26.3519 127.263 26.2708 127.648 26.3023C127.915 26.2711 128.186 26.2934 128.444 26.3679C128.703 26.4424 128.944 26.5676 129.154 26.7362C129.363 26.9048 129.537 27.1134 129.665 27.3499C129.793 27.5864 129.873 27.846 129.9 28.1135V28.2598C129.223 27.902 128.469 27.7165 127.704 27.7198C125.689 27.7198 123.651 28.8448 123.651 30.881C123.671 31.3152 123.777 31.741 123.965 32.1332C124.152 32.5254 124.417 32.8761 124.742 33.1645C125.067 33.453 125.447 33.6733 125.859 33.8124C126.271 33.9516 126.707 34.0068 127.141 33.9748C127.671 34.0128 128.202 33.9075 128.678 33.67C129.153 33.4325 129.556 33.0714 129.843 32.6248H129.911V33.7498H131.938V28.3385C131.938 25.8748 130.069 24.446 127.67 24.446L127.614 24.4123ZM127.355 32.1185C126.668 32.1185 125.711 31.7698 125.711 30.926C125.711 29.801 126.905 29.4298 127.963 29.4298C128.632 29.4133 129.293 29.5765 129.877 29.9023C129.807 30.5113 129.518 31.0745 129.065 31.4879C128.612 31.9014 128.025 32.1373 127.411 32.1523L127.355 32.1185ZM139.324 24.7498L136.914 30.8473H136.847L134.347 24.7498H132.095L135.845 33.2773L133.705 38.0135H135.901L141.666 24.7498H139.324ZM120.397 33.7498H122.502V19.6873H120.397V33.7498Z" fill="white"/>
<path d="M47.4145 16.0536H46.5813V13.8036H47.2907C47.6141 13.4612 47.8584 13.0519 48.0062 12.6048C48.1541 12.1578 48.2019 11.6837 48.1464 11.2161V7.87486H52.6501V13.7924H53.4045V16.0424H52.5713V14.6249H47.4145V16.0536ZM48.9796 11.2499C49.0321 12.1573 48.8084 13.0594 48.3378 13.8374H51.7156V8.70736H48.9796V11.2499ZM60.1375 13.7474C59.4793 14.4014 58.5887 14.7685 57.6605 14.7685C56.7322 14.7685 55.8416 14.4014 55.1834 13.7474C54.5436 13.0707 54.1872 12.1751 54.1872 11.2442C54.1872 10.3134 54.5436 9.41777 55.1834 8.74111C55.5079 8.41457 55.8938 8.15541 56.3189 7.97855C56.744 7.80169 57.2 7.71064 57.6605 7.71064C58.121 7.71064 58.5769 7.80169 59.002 7.97855C59.4272 8.15541 59.8131 8.41457 60.1375 8.74111C60.7798 9.41648 61.138 10.3126 61.138 11.2442C61.138 12.1759 60.7798 13.072 60.1375 13.7474ZM55.8252 13.1849C56.3126 13.6699 56.9725 13.9422 57.6605 13.9422C58.3484 13.9422 59.0083 13.6699 59.4957 13.1849C59.9768 12.655 60.2432 11.9652 60.2432 11.2499C60.2432 10.5345 59.9768 9.84471 59.4957 9.31486C59.0083 8.82985 58.3484 8.55754 57.6605 8.55754C56.9725 8.55754 56.3126 8.82985 55.8252 9.31486C55.3442 9.84471 55.0777 10.5345 55.0777 11.2499C55.0777 11.9652 55.3442 12.655 55.8252 13.1849ZM65.5082 14.7711C65.0433 14.7803 64.5815 14.6955 64.1504 14.5216C63.7192 14.3478 63.3278 14.0886 62.9996 13.7596C62.6714 13.4306 62.4132 13.0387 62.2406 12.6073C62.068 12.176 61.9845 11.7143 61.9953 11.2499C61.9845 10.7855 62.068 10.3237 62.2406 9.89238C62.4132 9.46106 62.6714 9.0691 62.9996 8.74011C63.3278 8.41112 63.7192 8.1519 64.1504 7.97807C64.5815 7.80423 65.0433 7.71938 65.5082 7.72861C65.9793 7.71695 66.4469 7.81212 66.8759 8.00697C67.305 8.20182 67.6842 8.49128 67.9852 8.85361L67.3772 9.43861C67.1548 9.15651 66.8681 8.9317 66.541 8.78295C66.2139 8.63421 65.8559 8.56586 65.4969 8.58361C65.1513 8.57463 64.8075 8.63581 64.4862 8.76343C64.165 8.89105 63.8729 9.08248 63.6279 9.32611C63.1397 9.85913 62.8689 10.5555 62.8689 11.278C62.8689 12.0005 63.1397 12.6968 63.6279 13.2299C63.8729 13.4735 64.165 13.6649 64.4862 13.7925C64.8075 13.9202 65.1513 13.9813 65.4969 13.9724C65.8932 13.9688 66.2837 13.8771 66.6402 13.7039C66.9966 13.5307 67.3099 13.2804 67.5573 12.9711L68.1653 13.5786C67.8589 13.95 67.4745 14.2496 67.0394 14.4561C66.5588 14.6736 66.0357 14.7812 65.5082 14.7711ZM71.7008 14.6249H70.8338V8.70736H68.9422V7.87486H73.581V8.70736H71.7008V14.6249ZM79.5485 7.87486L76.9926 13.5674C76.8903 13.9041 76.6859 14.2008 76.4075 14.4164C76.1292 14.632 75.7907 14.756 75.4388 14.7711C75.2061 14.7682 74.9764 14.7184 74.7633 14.6249L74.9885 13.8261C75.1253 13.9057 75.2805 13.9484 75.4388 13.9499C75.6043 13.9623 75.7696 13.923 75.9117 13.8374C76.0474 13.7226 76.1519 13.5756 76.2157 13.4099L76.4634 12.8699L74.2116 7.88611H75.2362L76.9025 11.7561L78.5239 7.87486H79.5485ZM80.528 14.6249V7.87486H85.4145V14.6249H84.5476V8.70736H81.395V14.6249H80.528ZM86.9571 14.6249V7.87486H87.824V10.7661H91.2018V7.87486H92.0687V14.6249H91.2018V11.5761H87.824V14.6249H86.9571ZM99.1508 13.7474C98.4926 14.4014 97.6021 14.7685 96.6738 14.7685C95.7455 14.7685 94.855 14.4014 94.1968 13.7474C93.557 13.0707 93.2005 12.1751 93.2005 11.2442C93.2005 10.3134 93.557 9.41777 94.1968 8.74111C94.5212 8.41457 94.9071 8.15541 95.3322 7.97855C95.7573 7.80169 96.2133 7.71064 96.6738 7.71064C97.1343 7.71064 97.5902 7.80169 98.0154 7.97855C98.4405 8.15541 98.8264 8.41457 99.1508 8.74111C99.7931 9.41648 100.151 10.3126 100.151 11.2442C100.151 12.1759 99.7931 13.072 99.1508 13.7474ZM94.8385 13.1849C95.326 13.6699 95.9859 13.9422 96.6738 13.9422C97.3617 13.9422 98.0216 13.6699 98.509 13.1849C98.9901 12.655 99.2565 11.9652 99.2565 11.2499C99.2565 10.5345 98.9901 9.84471 98.509 9.31486C98.0216 8.82985 97.3617 8.55754 96.6738 8.55754C95.9859 8.55754 95.326 8.82985 94.8385 9.31486C94.3575 9.84471 94.091 10.5345 94.091 11.2499C94.091 11.9652 94.3575 12.655 94.8385 13.1849ZM103.688 14.6249V7.87486H106.132C106.639 7.86529 107.131 8.05051 107.505 8.39236C107.693 8.5555 107.843 8.75796 107.944 8.98541C108.046 9.21286 108.096 9.45975 108.091 9.70861C108.096 10.0085 108.01 10.3028 107.843 10.5524C107.678 10.7947 107.447 10.9857 107.179 11.1036C107.505 11.2116 107.792 11.4155 108.001 11.6886C108.217 11.9642 108.332 12.3058 108.327 12.6561C108.333 12.9155 108.281 13.1729 108.176 13.4101C108.071 13.6473 107.915 13.8585 107.719 14.0286C107.327 14.3899 106.811 14.5872 106.278 14.5799L103.688 14.6249ZM104.555 10.7661H106.132C106.279 10.7722 106.426 10.7462 106.562 10.6899C106.698 10.6335 106.82 10.5482 106.92 10.4399C107.019 10.3495 107.1 10.2401 107.156 10.118C107.213 9.99597 107.244 9.8638 107.248 9.72941C107.252 9.59502 107.229 9.46116 107.181 9.33582C107.132 9.21048 107.059 9.09622 106.965 8.99986C106.871 8.89352 106.754 8.80916 106.624 8.75278C106.494 8.6964 106.352 8.66937 106.21 8.67361H104.6L104.555 10.7661ZM104.555 13.7924H106.3C106.453 13.7975 106.605 13.7689 106.745 13.7086C106.885 13.6483 107.01 13.5578 107.111 13.4436C107.31 13.2379 107.422 12.9644 107.426 12.6786C107.426 12.3802 107.308 12.0941 107.097 11.8831C106.885 11.6721 106.599 11.5536 106.3 11.5536H104.589L104.555 13.7924Z" fill="white"/>
<path fill-rule="evenodd" clip-rule="evenodd" d="M57.6605 7.82314C57.2148 7.82314 56.7736 7.91126 56.3622 8.08241C55.9512 8.25338 55.5781 8.50384 55.2643 8.81938C54.6449 9.47504 54.2998 10.3426 54.2998 11.2442C54.2998 12.1458 54.6448 13.0132 55.2641 13.6688C55.9011 14.3011 56.7625 14.656 57.6605 14.656C58.5584 14.656 59.4199 14.3011 60.057 13.6687C60.6787 13.0144 61.0254 12.1465 61.0254 11.2442C61.0254 10.3418 60.6786 9.47385 60.0567 8.81949C59.7429 8.5039 59.3698 8.2534 58.9588 8.08241C58.5473 7.91126 58.1061 7.82314 57.6605 7.82314ZM56.2756 7.87469C56.7144 7.69213 57.1851 7.59814 57.6605 7.59814C58.1358 7.59814 58.6065 7.69213 59.0453 7.87469C59.4841 8.05725 59.8825 8.32478 60.2174 8.66185L60.2191 8.66359C60.8813 9.35987 61.2506 10.2837 61.2506 11.2442C61.2506 12.2048 60.8813 13.1286 60.2191 13.8249L60.2169 13.8272C59.5376 14.5021 58.6185 14.881 57.6605 14.881C56.7024 14.881 55.7833 14.5021 55.104 13.8271L55.1015 13.8247C54.442 13.1271 54.0746 12.2038 54.0746 11.2442C54.0746 10.2846 54.442 9.3614 55.1016 8.66385L55.1035 8.66182C55.4384 8.32475 55.8368 8.05725 56.2756 7.87469ZM96.6738 7.82314C96.2281 7.82314 95.7869 7.91126 95.3755 8.08241C94.9645 8.25337 94.5915 8.50381 94.2777 8.81932C93.6582 9.47499 93.3131 10.3425 93.3131 11.2442C93.3131 12.1458 93.6581 13.0132 94.2774 13.6688C94.9144 14.3011 95.7759 14.656 96.6738 14.656C97.5718 14.656 98.4333 14.301 99.0704 13.6687C99.6921 13.0143 100.039 12.1465 100.039 11.2442C100.039 10.3418 99.692 9.47388 99.0701 8.81952C98.7563 8.50392 98.3831 8.25341 97.9721 8.08241C97.5607 7.91126 97.1194 7.82314 96.6738 7.82314ZM95.2889 7.87469C95.7278 7.69213 96.1984 7.59814 96.6738 7.59814C97.1491 7.59814 97.6198 7.69213 98.0586 7.87469C98.4975 8.05725 98.8958 8.32478 99.2307 8.66185L99.2325 8.66359C99.8946 9.35989 100.264 10.2837 100.264 11.2442C100.264 12.2048 99.8946 13.1286 99.2324 13.8249L99.2302 13.8272C98.5509 14.5021 97.6318 14.881 96.6738 14.881C95.7158 14.881 94.7967 14.5021 94.1174 13.8271L94.1149 13.8247C93.4553 13.1271 93.0879 12.2038 93.0879 11.2442C93.0879 10.2846 93.4554 9.3614 94.1149 8.66385L94.1168 8.66182C94.4517 8.32475 94.8501 8.05725 95.2889 7.87469ZM66.8293 8.10939C66.4158 7.92157 65.9651 7.82984 65.5109 7.84107L65.5059 7.8412C65.0563 7.83227 64.6095 7.91424 64.1925 8.08239C63.7755 8.25055 63.3968 8.50129 63.0793 8.81953C62.7618 9.13777 62.5121 9.51692 62.3451 9.93415C62.1782 10.3514 62.0975 10.798 62.1078 11.2473L62.108 11.2525C62.0976 11.7017 62.1782 12.1483 62.3451 12.5656C62.5121 12.9828 62.7618 13.3619 63.0793 13.6802C63.3968 13.9984 63.7755 14.2492 64.1925 14.4173C64.6095 14.5855 65.0563 14.6676 65.5059 14.6586L65.5082 14.7711L65.5103 14.6586C66.0207 14.6684 66.5269 14.5644 66.992 14.3541C67.3811 14.1692 67.7281 13.9074 68.0122 13.5847L67.5647 13.1376C67.3207 13.4158 67.0232 13.6429 66.6894 13.8051C66.3182 13.9855 65.9116 14.081 65.4989 14.0848C65.1384 14.0941 64.7797 14.0302 64.4446 13.8971C64.1092 13.7638 63.8043 13.564 63.5485 13.3096L63.5447 13.3059C63.0375 12.7521 62.7564 12.0286 62.7564 11.278C62.7564 10.5274 63.0376 9.80392 63.5448 9.25016L63.5484 9.24627C63.8042 8.9919 64.1092 8.79214 64.4446 8.65889C64.7787 8.52617 65.1362 8.46228 65.4956 8.47104C65.8711 8.45315 66.2454 8.52496 66.5876 8.68056C66.8934 8.81959 67.1655 9.02193 67.3863 9.27364L67.8305 8.84632C67.5521 8.53394 67.2111 8.28279 66.8293 8.10939ZM65.5082 14.8836C65.0289 14.8929 64.5527 14.8052 64.1082 14.626C63.663 14.4465 63.2588 14.1788 62.9198 13.839C62.5809 13.4993 62.3143 13.0945 62.136 12.6491C61.9581 12.2045 61.8719 11.7286 61.8826 11.2499C61.8719 10.7712 61.9581 10.2952 62.136 9.85061C62.3143 9.4052 62.5809 9.00043 62.9198 8.66069C63.2588 8.32095 63.663 8.05326 64.1082 7.87374C64.5527 7.69454 65.0287 7.6069 65.5079 7.61608C65.9952 7.60441 66.4788 7.70302 66.9225 7.90456C67.367 8.10644 67.76 8.40635 68.0718 8.78176L68.1386 8.86216L67.3657 9.60584L67.2887 9.50822C67.0775 9.24023 66.8051 9.02665 66.4943 8.88535C66.1836 8.74404 65.8435 8.67911 65.5025 8.69597L65.494 8.69639C65.1636 8.68781 64.8349 8.74597 64.5278 8.86797C64.2215 8.98965 63.9431 9.17199 63.7091 9.404C63.2411 9.91603 62.9815 10.5845 62.9815 11.278C62.9815 11.9715 63.2411 12.6399 63.7091 13.152C63.9431 13.384 64.2215 13.5663 64.5278 13.688C64.8349 13.81 65.1636 13.8685 65.494 13.8599L65.4959 13.8599C65.8755 13.8565 66.2495 13.7687 66.5909 13.6028C66.9323 13.4369 67.2324 13.1971 67.4694 12.9009L67.548 12.8027L68.3173 13.5713L68.2522 13.6502C67.9353 14.0343 67.5378 14.3441 67.0877 14.5577L67.0859 14.5586C66.5907 14.7827 66.0517 14.8937 65.5082 14.8836ZM107.429 8.47543C107.076 8.15301 106.612 7.97831 106.134 7.98734L106.132 7.98736H103.801V14.5104L106.276 14.4674L106.279 14.4674C106.784 14.4744 107.272 14.2877 107.643 13.9459L107.645 13.9436C107.829 13.7844 107.975 13.5867 108.073 13.3646C108.172 13.1425 108.22 12.9014 108.215 12.6586L108.215 12.6544C108.219 12.3298 108.113 12.0134 107.912 11.7581L107.911 11.7569C107.716 11.5018 107.448 11.3113 107.143 11.2104L106.865 11.1183L107.133 11.0006C107.383 10.8913 107.596 10.7142 107.75 10.4895C107.903 10.2592 107.983 9.98742 107.978 9.71059V9.7064C107.983 9.47403 107.936 9.24349 107.842 9.0311C107.747 8.81871 107.607 8.62966 107.431 8.47732L107.429 8.47543ZM107.58 8.30837C107.185 7.94792 106.666 7.75253 106.131 7.76236H103.576V14.7393L106.276 14.6923L106.278 14.6924C106.839 14.6997 107.382 14.4922 107.794 14.1124C108.002 13.9317 108.168 13.7074 108.279 13.4556C108.391 13.204 108.446 12.9309 108.44 12.6557L108.44 12.6578L108.327 12.6561L108.44 12.6536L108.44 12.6557C108.445 12.2806 108.321 11.915 108.09 11.6197C107.917 11.3948 107.696 11.214 107.443 11.0903C107.638 10.9681 107.806 10.8068 107.936 10.6157L107.937 10.6148C108.116 10.3468 108.209 10.0308 108.203 9.70869L108.203 9.71081L108.091 9.70861L108.203 9.70663L108.203 9.70869C108.208 9.44407 108.155 9.18159 108.047 8.93972C107.94 8.69766 107.78 8.48215 107.58 8.30837ZM48.0338 7.76236H52.7627V13.6799H53.517V16.1549H52.4587V14.7374H47.5271V16.1661H46.4688V13.6911H47.2416C47.5375 13.3679 47.7617 12.9858 47.8993 12.5695C48.042 12.1381 48.0882 11.6806 48.0346 11.2294L48.0338 11.2228V7.76236ZM48.259 7.98736V11.2095C48.3152 11.6913 48.2655 12.1795 48.1131 12.6401C47.9601 13.1029 47.7073 13.5264 47.3726 13.8808L47.3392 13.9161H46.6939V15.9411H47.3019V14.5124H52.6839V15.9299H53.2919V13.9049H52.5375V7.98736H48.259ZM68.8296 7.76236H73.6936V8.81986H71.8133V14.7374H70.7212V8.81986H68.8296V7.76236ZM69.0548 7.98736V8.59486H70.9464V14.5124H71.5882V8.59486H73.4685V7.98736H69.0548ZM78.4488 7.76236H79.7224L77.0982 13.607C76.9884 13.9632 76.7714 14.2769 76.4765 14.5053C76.1797 14.7352 75.8188 14.8674 75.4437 14.8835L75.4374 14.8838C75.1896 14.8806 74.9449 14.8275 74.718 14.7279L74.6284 14.6885L74.9195 13.6558L75.0451 13.7289C75.165 13.7987 75.3011 13.8361 75.4399 13.8374L75.4473 13.8374C75.5865 13.8479 75.7255 13.816 75.8459 13.7456C75.9637 13.6439 76.0547 13.5147 76.1106 13.3695L76.1132 13.3629L76.3397 12.8695L74.0372 7.77361H75.3103L76.901 11.4678L78.4488 7.76236ZM78.5989 7.98736L76.9041 12.0444L75.162 7.99861H74.3859L76.5871 12.8702L76.3195 13.4536C76.2488 13.6356 76.1336 13.7971 75.9845 13.9232L75.9776 13.929L75.9699 13.9337C75.8088 14.0308 75.6216 14.0757 75.4341 14.0623C75.3054 14.0606 75.1786 14.0348 75.0602 13.9865L74.899 14.5584C75.0712 14.6219 75.2531 14.6559 75.4371 14.6586C75.7646 14.6439 76.0795 14.5282 76.3385 14.3275C76.5984 14.1262 76.7893 13.8491 76.8849 13.5347L76.8869 13.5278L79.3745 7.98736H78.5989ZM80.4154 7.76236H85.5271V14.7374H84.435V8.81986H81.5076V14.7374H80.4154V7.76236ZM80.6406 7.98736V14.5124H81.2824V8.59486H84.6602V14.5124H85.3019V7.98736H80.6406ZM86.8445 7.76236H87.9366V10.6536H91.0892V7.76236H92.1813V14.7374H91.0892V11.6886H87.9366V14.7374H86.8445V7.76236ZM87.0696 7.98736V14.5124H87.7114V11.4636H91.3144V14.5124H91.9562V7.98736H91.3144V10.8786H87.7114V7.98736H87.0696ZM55.7457 9.23514C56.2543 8.72913 56.9428 8.44504 57.6605 8.44504C58.3781 8.44504 59.0666 8.72913 59.5752 9.23514L59.5792 9.23918C60.079 9.78973 60.3558 10.5065 60.3558 11.2499C60.3558 11.9932 60.0789 12.7099 59.5791 13.2604L59.5753 13.2647C59.0667 13.7707 58.3781 14.0547 57.6605 14.0547C56.9428 14.0547 56.2543 13.7706 55.7457 13.2646L55.8252 13.1849L55.7418 13.2604C55.242 12.7099 54.9651 11.9932 54.9651 11.2499C54.9651 10.5065 55.242 9.78982 55.7418 9.23927L55.7457 9.23514ZM55.9067 13.1072C56.3728 13.5699 57.0033 13.8297 57.6605 13.8297C58.3176 13.8297 58.9481 13.5699 59.4142 13.1072C59.8753 12.5983 60.1306 11.9363 60.1306 11.2499C60.1306 10.5634 59.8753 9.90144 59.4142 9.39256C58.9481 8.92981 58.3176 8.67004 57.6605 8.67004C57.0033 8.67004 56.3728 8.92981 55.9067 9.39256C55.4456 9.90144 55.1903 10.5634 55.1903 11.2499C55.1903 11.9363 55.4456 12.5983 55.9067 13.1072ZM94.7591 9.23514C95.2676 8.72913 95.9561 8.44504 96.6738 8.44504C97.3915 8.44504 98.0799 8.72913 98.5885 9.23514L98.5925 9.23918C99.0924 9.78973 99.3691 10.5065 99.3691 11.2499C99.3691 11.9932 99.0923 12.7099 98.5924 13.2604L98.5886 13.2647C98.0801 13.7707 97.3915 14.0547 96.6738 14.0547C95.9561 14.0547 95.2676 13.7706 94.7591 13.2646L94.8385 13.1849L94.7551 13.2604C94.2553 12.7099 93.9784 11.9932 93.9784 11.2499C93.9784 10.5065 94.2553 9.78982 94.7551 9.23927L94.7591 9.23514ZM94.92 13.1072C95.3862 13.5699 96.0166 13.8297 96.6738 13.8297C97.331 13.8297 97.9614 13.5699 98.4276 13.1072C98.8886 12.5983 99.144 11.9363 99.144 11.2499C99.144 10.5634 98.8886 9.90143 98.4276 9.39255C97.9614 8.9298 97.331 8.67004 96.6738 8.67004C96.0166 8.67004 95.3862 8.9298 94.92 9.39255C94.459 9.90143 94.2036 10.5634 94.2036 11.2499C94.2036 11.9363 94.459 12.5983 94.92 13.1072ZM106.209 8.56111C106.367 8.55664 106.524 8.58683 106.669 8.64954C106.813 8.71213 106.943 8.8056 107.047 8.92339C107.151 9.03016 107.232 9.15655 107.286 9.29511C107.34 9.43454 107.365 9.58343 107.361 9.73292C107.356 9.88241 107.321 10.0294 107.259 10.1652C107.196 10.2994 107.108 10.42 106.999 10.5198C106.889 10.6384 106.754 10.7319 106.605 10.7938C106.454 10.8561 106.292 10.885 106.129 10.8786H104.44L104.49 8.56111H106.209ZM106.579 8.85602C106.464 8.8062 106.339 8.78231 106.214 8.78606L106.21 8.78611H104.711L104.67 10.6536H106.136C106.267 10.6591 106.398 10.636 106.519 10.586C106.64 10.5359 106.748 10.46 106.837 10.3637L106.84 10.3599L106.844 10.3565C106.933 10.2763 107.004 10.1792 107.054 10.0708C107.104 9.9625 107.132 9.84519 107.136 9.7259C107.139 9.60661 107.119 9.48779 107.076 9.37653C107.033 9.26527 106.967 9.16385 106.884 9.07832L106.88 9.07446C106.797 8.98048 106.694 8.90585 106.579 8.85602ZM48.867 8.59486H51.8282V13.9499H48.1382L48.2414 13.7792C48.7002 13.0207 48.9184 12.1411 48.8672 11.2564L48.8668 11.2499L48.867 8.59486ZM49.0922 8.81986V11.2466C49.1415 12.11 48.9469 12.9686 48.5325 13.7249H51.603V8.81986H49.0922ZM104.478 11.4411H106.3C106.629 11.4411 106.944 11.5715 107.176 11.8036C107.408 12.0356 107.539 12.3504 107.539 12.6786L107.539 12.6802C107.535 12.9937 107.411 13.2939 107.194 13.52C107.082 13.6457 106.944 13.7454 106.789 13.8119C106.635 13.8785 106.467 13.9102 106.299 13.9049H104.441L104.478 11.4411ZM104.7 11.6661L104.67 13.6799H106.304C106.44 13.6844 106.575 13.659 106.7 13.6052C106.825 13.5515 106.937 13.4709 107.027 13.3691L107.03 13.3655C107.208 13.1805 107.31 12.9347 107.314 12.6778C107.314 12.4096 107.207 12.1524 107.017 11.9627C106.827 11.7728 106.569 11.6661 106.3 11.6661H104.7Z" fill="white"/>
<path d="M11.7544 8.48256C11.3874 8.92256 11.2022 9.48583 11.2365 10.0576V34.9426C11.2022 35.5143 11.3874 36.0776 11.7544 36.5176L11.8332 36.5963L25.7834 22.6688V22.3426L11.8332 8.40381L11.7544 8.48256Z" fill="url(#paint0_linear)"/>
<path d="M30.3995 27.3151L25.7832 22.6688V22.3426L30.3995 17.6851L30.5008 17.7413L36.0291 20.8801C37.6054 21.7688 37.6054 23.2313 36.0291 24.1313L30.5234 27.2588L30.3995 27.3151Z" fill="url(#paint1_linear)"/>
<path d="M30.5363 27.2475L25.7849 22.5L11.7559 36.5175C12.0772 36.7997 12.487 36.9609 12.9146 36.9732C13.3423 36.9856 13.7607 36.8482 14.0978 36.585L30.5476 27.2475" fill="url(#paint2_linear)"/>
<path d="M30.5339 17.7524L14.0841 8.41487C13.7471 8.15164 13.3286 8.01432 12.901 8.02664C12.4734 8.03897 12.0635 8.20016 11.7422 8.48237L25.7825 22.4999L30.5339 17.7524Z" fill="url(#paint3_linear)"/>
<path opacity="0.2" d="M30.4012 27.146L14.0865 36.4272C13.7615 36.6701 13.3665 36.8013 12.9606 36.8013C12.5547 36.8013 12.1597 36.6701 11.8347 36.4272L11.7559 36.506L11.8347 36.5847C12.159 36.8293 12.5543 36.9616 12.9606 36.9616C13.3669 36.9616 13.7622 36.8293 14.0865 36.5847L30.5363 27.2472L30.4012 27.146Z" fill="black"/>
<path opacity="0.12" d="M11.7544 36.36C11.3874 35.92 11.2022 35.3567 11.2365 34.785V34.9537C11.2022 35.5255 11.3874 36.0888 11.7544 36.5287L11.8332 36.45L11.7544 36.36ZM36.0293 23.9625L30.3997 27.1463L30.5011 27.2475L36.0293 24.12C36.343 23.9728 36.6123 23.7455 36.81 23.461C37.0077 23.1766 37.1268 22.8451 37.1553 22.5C37.092 22.8135 36.9575 23.1084 36.7624 23.3619C36.5672 23.6155 36.3164 23.8209 36.0293 23.9625Z" fill="black"/>
<path opacity="0.25" d="M14.0845 8.57176L36.0288 21.0368C36.3158 21.1783 36.5666 21.3838 36.7618 21.6373C36.9569 21.8908 37.0914 22.1857 37.1547 22.4993C37.1262 22.1541 37.0071 21.8226 36.8094 21.5382C36.6117 21.2538 36.3424 21.0265 36.0288 20.8793L14.0845 8.41426C12.5082 7.52551 11.2246 8.26801 11.2246 10.068V10.2368C11.2584 8.42551 12.5194 7.68301 14.0845 8.57176Z" fill="white"/>
<defs>
<linearGradient id="paint0_linear" x1="24.5449" y1="9.79881" x2="5.66741" y2="28.6918" gradientUnits="userSpaceOnUse">
<stop stop-color="#00A0FF"/>
<stop offset="0.01" stop-color="#00A1FF"/>
<stop offset="0.26" stop-color="#00BEFF"/>
<stop offset="0.51" stop-color="#00D2FF"/>
<stop offset="0.76" stop-color="#00DFFF"/>
<stop offset="1" stop-color="#00E3FF"/>
</linearGradient>
<linearGradient id="paint1_linear" x1="38.0896" y1="22.5001" x2="10.8534" y2="22.5001" gradientUnits="userSpaceOnUse">
<stop stop-color="#FFE000"/>
<stop offset="0.41" stop-color="#FFBD00"/>
<stop offset="0.78" stop-color="#FFA500"/>
<stop offset="1" stop-color="#FF9C00"/>
</linearGradient>
<linearGradient id="paint2_linear" x1="27.9579" y1="25.0875" x2="2.35293" y2="50.7023" gradientUnits="userSpaceOnUse">
<stop stop-color="#FF3A44"/>
<stop offset="1" stop-color="#C31162"/>
</linearGradient>
<linearGradient id="paint3_linear" x1="8.21804" y1="0.202373" x2="19.648" y2="11.6418" gradientUnits="userSpaceOnUse">
<stop stop-color="#32A071"/>
<stop offset="0.07" stop-color="#2DA771"/>
<stop offset="0.48" stop-color="#15CF74"/>
<stop offset="0.8" stop-color="#06E775"/>
<stop offset="1" stop-color="#00F076"/>
</linearGradient>
</defs>
</svg>
