<svg width="25" height="24" viewBox="0 0 25 24" fill="none" xmlns="http://www.w3.org/2000/svg">
<path fill-rule="evenodd" clip-rule="evenodd" d="M0.269531 6.9194C0.269531 3.09792 3.36745 0 7.18893 0H17.3501C21.1716 0 24.2695 3.09792 24.2695 6.9194V17.0806C24.2695 20.9021 21.1716 24 17.3501 24H7.18893C3.36745 24 0.269531 20.9021 0.269531 17.0806V6.9194ZM7.18893 2.23206C4.60019 2.23206 2.5016 4.33065 2.5016 6.9194V17.0806C2.5016 19.6693 4.60019 21.7679 7.18893 21.7679H17.3501C19.9389 21.7679 22.0375 19.6693 22.0375 17.0806V6.9194C22.0375 4.33065 19.9389 2.23206 17.3501 2.23206H7.18893Z" fill="#00A3DD"/>
<path fill-rule="evenodd" clip-rule="evenodd" d="M5.98145 12.0957C5.98145 8.59452 8.80488 5.74512 12.3015 5.74512C15.7981 5.74512 18.6215 8.59452 18.6215 12.0957C18.6215 15.5968 15.7981 18.4462 12.3015 18.4462C8.80488 18.4462 5.98145 15.5968 5.98145 12.0957ZM12.3015 7.97718C10.0499 7.97718 8.21351 9.81493 8.21351 12.0957C8.21351 14.3764 10.0499 16.2142 12.3015 16.2142C14.5531 16.2142 16.3894 14.3764 16.3894 12.0957C16.3894 9.81493 14.5531 7.97718 12.3015 7.97718Z" fill="#00A3DD"/>
<path fill-rule="evenodd" clip-rule="evenodd" d="M18.6813 7.11635C19.5225 7.11635 20.2044 6.43043 20.2044 5.5843C20.2044 4.73817 19.5225 4.05225 18.6813 4.05225C17.8401 4.05225 17.1582 4.73817 17.1582 5.5843C17.1582 6.43043 17.8401 7.11635 18.6813 7.11635Z" fill="#00A3DD"/>
</svg>
