<svg width="24" height="24" viewBox="0 0 24 24" fill="none" xmlns="http://www.w3.org/2000/svg">
<path fill-rule="evenodd" clip-rule="evenodd" d="M0.269531 6.97646C0.269531 3.19789 3.33266 0.134766 7.11122 0.134766H17.1583C20.9369 0.134766 24 3.19789 24 6.97646V17.0235C24 20.8021 20.9369 23.8652 17.1583 23.8652H7.11122C3.33266 23.8652 0.269531 20.8021 0.269531 17.0235V6.97646ZM7.11122 2.34176C4.55155 2.34176 2.47653 4.41679 2.47653 6.97646V17.0235C2.47653 19.5832 4.55155 21.6582 7.11122 21.6582H17.1583C19.718 21.6582 21.793 19.5832 21.793 17.0235V6.97646C21.793 4.41679 19.718 2.34176 17.1583 2.34176H7.11122Z" fill="black"/>
<path fill-rule="evenodd" clip-rule="evenodd" d="M5.91797 12.0947C5.91797 8.63283 8.70969 5.81543 12.167 5.81543C15.6244 5.81543 18.4161 8.63283 18.4161 12.0947C18.4161 15.5565 15.6244 18.3739 12.167 18.3739C8.70969 18.3739 5.91797 15.5565 5.91797 12.0947ZM12.167 8.02243C9.94073 8.02243 8.12497 9.83953 8.12497 12.0947C8.12497 14.3498 9.94073 16.1669 12.167 16.1669C14.3933 16.1669 16.2091 14.3498 16.2091 12.0947C16.2091 9.83953 14.3933 8.02243 12.167 8.02243Z" fill="black"/>
<path fill-rule="evenodd" clip-rule="evenodd" d="M18.4748 7.1713C19.3065 7.1713 19.9808 6.49308 19.9808 5.65645C19.9808 4.81982 19.3065 4.1416 18.4748 4.1416C17.643 4.1416 16.9688 4.81982 16.9688 5.65645C16.9688 6.49308 17.643 7.1713 18.4748 7.1713Z" fill="black"/>
</svg>
