<svg width="16" height="16" viewBox="0 0 16 16" fill="none" xmlns="http://www.w3.org/2000/svg">
<circle cx="8" cy="8" r="8" fill="black"/>
<path d="M3.85693 5.91069C3.85693 5.4633 3.99801 4.9335 4.31542 4.43902C4.48 4.18001 4.69161 3.94454 4.93849 3.75616C5.06781 3.66198 5.17361 3.54424 5.29117 3.45006C5.43225 3.33232 5.58507 3.26168 5.77317 3.27346C5.91424 3.28523 6.0318 3.3441 6.13761 3.43828C6.27868 3.55602 6.408 3.6973 6.50205 3.85035C6.7019 4.15646 6.91351 4.46257 7.07809 4.79222C7.14863 4.94527 7.20741 5.09833 7.23092 5.27493C7.27795 5.59281 7.17214 5.85182 6.93702 6.07552C6.81946 6.18148 6.71366 6.27566 6.59609 6.38162C6.52556 6.44049 6.45502 6.48759 6.38449 6.53468C6.2199 6.65241 6.10234 6.80547 6.07883 7.01739C6.06707 7.14689 6.07883 7.28817 6.1141 7.41768C6.18463 7.66492 6.31395 7.90039 6.45502 8.11231C6.7019 8.47728 6.98405 8.81871 7.27795 9.13659C7.51307 9.38383 7.75994 9.63107 8.04209 9.81945C8.20668 9.93718 8.38302 10.0314 8.58287 10.0667C8.81799 10.1138 9.0296 10.0667 9.20594 9.90186C9.24121 9.87831 9.26472 9.84299 9.29999 9.80767C9.45282 9.63107 9.64091 9.47802 9.81726 9.33674C10.1112 9.10127 10.4286 9.07772 10.7577 9.21901C10.9811 9.31319 11.181 9.45447 11.3573 9.60753C11.5807 9.7959 11.804 9.99605 12.0156 10.1962C12.1214 10.2904 12.2037 10.3963 12.2625 10.5141C12.4271 10.8084 12.4036 11.0674 12.1567 11.3029C11.9569 11.503 11.7452 11.6914 11.5219 11.868C11.1457 12.1623 10.7225 12.3389 10.2522 12.4096C9.68794 12.492 9.14716 12.4214 8.61814 12.2212C8.10087 12.0328 7.63063 11.7503 7.1839 11.4089C6.61961 10.9732 6.1141 10.467 5.64385 9.92541C5.3382 9.57221 5.0443 9.19546 4.78566 8.79516C4.48 8.32423 4.22137 7.84152 4.04503 7.31172C3.93923 6.89965 3.85693 6.47581 3.85693 5.91069Z" fill="white"/>
</svg>
