<svg width="14" height="14" viewBox="0 0 14 14" fill="none" xmlns="http://www.w3.org/2000/svg">
<path d="M0.26745 6.87123C0.26745 8.20015 0.637766 9.43635 1.29611 10.4871C1.20353 11.2701 0 14 0 14C0 14 2.6025 13.1553 3.74431 12.8462C4.7421 13.4128 5.90448 13.7425 7.13887 13.7425L0.26745 6.87123Z" fill="url(#paint0_linear)"/>
<circle cx="7" cy="7" r="7" fill="#25B749"/>
<path d="M3.37492 5.17184C3.37492 4.78038 3.49836 4.3168 3.7761 3.88413C3.92011 3.65749 4.10527 3.45146 4.32129 3.28663C4.43444 3.20422 4.52702 3.1012 4.62988 3.01879C4.75332 2.91577 4.88705 2.85396 5.05163 2.86426C5.17507 2.87456 5.27794 2.92607 5.37051 3.00849C5.49395 3.1115 5.60711 3.23512 5.6894 3.36904C5.86427 3.63689 6.04943 3.90473 6.19344 4.19318C6.25516 4.3271 6.30659 4.46102 6.32716 4.61555C6.36831 4.8937 6.27573 5.12033 6.07 5.31606C5.96713 5.40878 5.87456 5.49119 5.77169 5.58391C5.70997 5.63542 5.64825 5.67662 5.58653 5.71783C5.44252 5.82085 5.33966 5.95477 5.31908 6.1402C5.3088 6.25352 5.31908 6.37714 5.34994 6.49046C5.41166 6.70679 5.52481 6.91283 5.64825 7.09826C5.86427 7.41761 6.11115 7.71636 6.36831 7.9945C6.57404 8.21084 6.79006 8.42718 7.03694 8.592C7.18095 8.69502 7.33525 8.77743 7.51012 8.80834C7.71585 8.84954 7.90101 8.80834 8.05531 8.66411C8.08616 8.64351 8.10674 8.61261 8.1376 8.5817C8.27132 8.42718 8.43591 8.29325 8.59021 8.16963C8.84737 7.9636 9.12511 7.943 9.41313 8.06662C9.60857 8.14903 9.78344 8.27265 9.93774 8.40657C10.1332 8.5714 10.3286 8.74653 10.5138 8.92166C10.6064 9.00407 10.6784 9.09679 10.7298 9.1998C10.8738 9.45735 10.8532 9.68398 10.6372 9.89002C10.4624 10.0651 10.2772 10.23 10.0818 10.3845C9.75258 10.642 9.38227 10.7966 8.97081 10.8584C8.47705 10.9305 8.00387 10.8687 7.54098 10.6935C7.08837 10.5287 6.67691 10.2815 6.28602 9.98273C5.79226 9.60157 5.34994 9.1586 4.93848 8.68472C4.67103 8.37567 4.41387 8.04601 4.18756 7.69576C3.92011 7.28369 3.69381 6.86132 3.53951 6.39774C3.44693 6.03718 3.37492 5.66632 3.37492 5.17184Z" fill="white"/>
<defs>
<linearGradient id="paint0_linear" x1="7" y1="-1.15333e-06" x2="7" y2="14" gradientUnits="userSpaceOnUse">
<stop stop-color="#11BC3C"/>
<stop offset="1" stop-color="#27B64A"/>
</linearGradient>
</defs>
</svg>
