<svg width="21" height="20" viewBox="0 0 21 20" fill="none" xmlns="http://www.w3.org/2000/svg">
<path fill-rule="evenodd" clip-rule="evenodd" d="M14.3667 8C14.3667 11.314 11.6801 14 8.3667 14C5.05335 14 2.3667 11.314 2.3667 8C2.3667 4.68605 5.05335 2 8.3667 2C11.6801 2 14.3667 4.68605 14.3667 8ZM13.2723 14.3198C11.9176 15.3729 10.2153 16 8.3667 16C3.94892 16 0.366699 12.4187 0.366699 8C0.366699 3.58133 3.94892 0 8.3667 0C12.7845 0 16.3667 3.58133 16.3667 8C16.3667 9.84879 15.7396 11.551 14.6865 12.9056L20.0738 18.2929C20.4643 18.6834 20.4643 19.3166 20.0738 19.7071C19.6833 20.0976 19.0501 20.0976 18.6596 19.7071L13.2723 14.3198Z" fill="#7C7C86"/>
</svg>
