<svg width="24" height="14" viewBox="0 0 24 14" fill="none" xmlns="http://www.w3.org/2000/svg">
<path fill-rule="evenodd" clip-rule="evenodd" d="M12.799 13.2701C12.799 13.2701 13.2181 13.2244 13.4327 12.9981C13.6292 12.7908 13.6224 12.3995 13.6224 12.3995C13.6224 12.3995 13.5963 10.5725 14.4605 10.3027C15.3122 10.0374 16.4059 12.0696 17.5665 12.851C18.4432 13.4418 19.1087 13.3125 19.1087 13.3125L22.2102 13.2701C22.2102 13.2701 23.8319 13.172 23.063 11.9202C22.9994 11.8176 22.6145 10.9938 20.7577 9.30164C18.8123 7.5303 19.0735 7.81679 21.4152 4.75235C22.8416 2.88626 23.4117 1.74699 23.2334 1.25984C23.0642 0.793876 22.0148 0.917613 22.0148 0.917613L18.5239 0.938793C18.5239 0.938793 18.2649 0.904236 18.073 1.01683C17.8856 1.12719 17.7641 1.38469 17.7641 1.38469C17.7641 1.38469 17.2122 2.82829 16.4751 4.05675C14.9204 6.64742 14.2992 6.78454 14.0449 6.62401C13.4532 6.24834 13.6008 5.11687 13.6008 4.31314C13.6008 1.80161 13.9892 0.75486 12.8456 0.483976C12.4663 0.393681 12.1869 0.334599 11.216 0.324566C9.97015 0.312304 8.91627 0.329025 8.31892 0.615516C7.92144 0.806138 7.61481 1.23197 7.80219 1.2565C8.03273 1.28659 8.55513 1.39473 8.83223 1.76482C9.18996 2.24305 9.17747 3.31544 9.17747 3.31544C9.17747 3.31544 9.38302 6.27175 8.69709 6.6385C8.22693 6.89044 7.58188 6.37654 6.19525 4.02553C5.48547 2.8216 4.94945 1.49059 4.94945 1.49059C4.94945 1.49059 4.8461 1.242 4.66099 1.10823C4.43727 0.946596 4.12496 0.896433 4.12496 0.896433L0.807735 0.917613C0.807735 0.917613 0.309185 0.93099 0.126345 1.14391C-0.0360523 1.3323 0.113853 1.72358 0.113853 1.72358C0.113853 1.72358 2.71108 7.6886 5.65241 10.6951C8.34958 13.4507 11.4113 13.2701 11.4113 13.2701H12.799Z" fill="black"/>
</svg>
