<svg width="163" height="188" viewBox="0 0 163 188" fill="none" xmlns="http://www.w3.org/2000/svg">
<path opacity="0.06" fill-rule="evenodd" clip-rule="evenodd" d="M182.659 155.679C141.132 197.248 73.3574 197.636 31.4389 155.679C-10.4796 113.723 -10.4796 46.2817 31.4389 4.32083C72.9657 -37.244 140.741 -37.6361 182.659 4.32083C202.639 24.319 214 51.3753 214 80.0002C214 108.233 202.639 135.681 182.659 155.679ZM117.617 14.124L171.68 107.449C174.814 112.942 173.247 120.389 167.371 123.53C162.669 126.271 156.793 125.49 152.875 121.957C139.556 109.021 126.627 101.567 114.091 99.6063L116.833 76.0791C120.359 76.4712 123.885 77.2554 127.019 78.4318L107.039 43.533L87.0594 78.0397C90.1935 76.8633 93.7194 76.4712 97.2452 75.6909L99.9876 99.2181C87.4512 101.179 74.523 108.625 61.2031 121.569C56.502 126.271 49.0585 126.271 44.3574 121.569C40.4398 117.644 39.6562 111.37 42.7903 106.664L96.4617 13.7318C99.5958 8.24214 107.039 6.28153 112.524 9.4185C114.875 10.5949 116.442 12.1633 117.617 14.124ZM107.065 169.408C156.427 169.408 196.386 129.415 196.386 80.0039C196.386 30.6006 156.427 -9.39966 107.065 -9.39966C57.7025 -9.39966 17.7428 30.6006 17.7428 80.0039C17.7428 103.531 27.1451 126.274 43.9908 143.139C60.8366 160.001 83.5588 169.408 107.065 169.408Z" fill="black"/>
</svg>
