<svg width="151" height="40" viewBox="0 0 151 40" fill="none" xmlns="http://www.w3.org/2000/svg">
<mask id="mask0" mask-type="alpha" maskUnits="userSpaceOnUse" x="0" y="0" width="40" height="40">
<path fill-rule="evenodd" clip-rule="evenodd" d="M0 0H40V40H0V0Z" fill="white"/>
</mask>
<g mask="url(#mask0)">
<path fill-rule="evenodd" clip-rule="evenodd" d="M34.1419 34.1457C26.3799 41.9156 13.7117 41.9881 5.87643 34.1457C-1.95881 26.3033 -1.95881 13.6975 5.87643 5.85436C13.6384 -1.91476 26.3066 -1.98806 34.1419 5.85436C37.8764 9.59233 40 14.6496 40 20C40 25.2772 37.8764 30.4077 34.1419 34.1457ZM21.984 7.6867L32.0893 25.1306C32.6751 26.1574 32.3822 27.5493 31.2838 28.1364C30.4051 28.6487 29.3067 28.5028 28.5744 27.8425C26.0847 25.4245 23.6682 24.0312 21.325 23.6647L21.8376 19.2671C22.4966 19.3404 23.1556 19.487 23.7415 19.7069L20.0069 13.1837L16.2724 19.6336C16.8582 19.4137 17.5172 19.3404 18.1762 19.1945L18.6888 23.5922C16.3456 23.9586 13.9291 25.3505 11.4394 27.7699C10.5607 28.6487 9.16938 28.6487 8.29066 27.7699C7.5584 27.0362 7.41194 25.8635 7.99776 24.984L18.0298 7.61341C18.6156 6.5873 20.0069 6.22083 21.0321 6.80718C21.4714 7.02706 21.7643 7.32023 21.984 7.6867ZM20.012 36.7115C29.2386 36.7115 36.7077 29.2362 36.7077 20.0005C36.7077 10.7662 29.2386 3.28955 20.012 3.28955C10.7855 3.28955 3.31638 10.7662 3.31638 20.0005C3.31638 24.3981 5.07381 28.6492 8.22255 31.8015C11.3713 34.9531 15.6184 36.7115 20.012 36.7115Z" fill="#00A3DD"/>
</g>
<path d="M46.7387 24.6281C46.6856 24.7609 46.5527 25.0798 46.5527 25.505C46.5527 26.5679 47.4562 27.365 48.5191 27.365C49.6086 27.365 50.1666 26.7804 50.4323 25.9567L51.2295 23.4854H58.6167L59.4139 25.9833C59.6796 26.7804 60.2377 27.365 61.3537 27.365C62.3369 27.365 63.1872 26.6476 63.1872 25.6112C63.1872 25.4252 63.1341 25.0532 62.9747 24.6281L57.7664 10.1725C57.3147 8.89702 56.3315 7.96697 54.9231 7.96697C53.5679 7.96697 52.5316 8.95016 52.0799 10.1725L46.7387 24.6281ZM54.8966 12.1123H54.9497L57.421 19.8184H52.3722L54.8966 12.1123Z" fill="black"/>
<path d="M65.2568 30.8726C65.2568 32.1481 66.054 32.9985 67.17 32.9985C68.2861 32.9985 69.0833 32.1481 69.0833 30.8726V26.1958C70.093 27.0727 71.3951 27.5245 72.5909 27.5245C76.4439 27.5245 78.8886 23.9372 78.8886 20.3233C78.8886 16.6031 76.8425 12.7501 72.7237 12.7501C71.2888 12.7501 69.8007 13.3347 69.0833 14.5039C68.8441 13.4941 68.2329 12.9095 67.17 12.9095C66.054 12.9095 65.2568 13.7598 65.2568 15.0353V30.8726ZM69.0833 20.031C69.0833 18.1709 70.0399 16.2577 72.086 16.2577C74.0789 16.2577 75.0621 18.3569 75.0621 20.1638C75.0621 21.9442 74.0789 24.0169 72.086 24.0169C69.9867 24.0169 69.0833 21.8911 69.0833 20.031Z" fill="black"/>
<path d="M81.3922 25.2392C81.3922 26.5147 82.1894 27.365 83.3055 27.365C84.4215 27.365 85.2187 26.5147 85.2187 25.2392V8.87044C85.2187 7.59496 84.4215 6.74463 83.3055 6.74463C82.1894 6.74463 81.3922 7.59496 81.3922 8.87044V25.2392Z" fill="black"/>
<path d="M94.5638 12.7501C90.5247 12.7501 87.708 16.2842 87.708 20.1638C87.708 24.1497 90.445 27.5245 94.5638 27.5245C98.6826 27.5245 101.42 24.1497 101.42 20.1638C101.42 16.2842 98.6028 12.7501 94.5638 12.7501ZM94.5638 16.2577C96.663 16.2577 97.5931 18.3303 97.5931 20.1638C97.5931 21.9974 96.6365 24.0169 94.5638 24.0169C92.4911 24.0169 91.5345 21.9974 91.5345 20.1638C91.5345 18.3303 92.4645 16.2577 94.5638 16.2577Z" fill="black"/>
<path d="M103.962 25.2392C103.962 26.5147 104.759 27.365 105.875 27.365C106.991 27.365 107.788 26.5147 107.788 25.2392V18.5695C107.788 17.0283 108.479 15.9388 110.047 15.9388C111.429 15.9388 112.279 17.0283 112.279 18.5695V25.2392C112.279 26.5147 113.076 27.365 114.192 27.365C115.308 27.365 116.105 26.5147 116.105 25.2392V18.5695C116.105 17.0283 116.956 15.9388 118.364 15.9388C119.746 15.9388 120.596 17.0283 120.596 18.5695V25.2392C120.596 26.5147 121.393 27.365 122.509 27.365C123.625 27.365 124.423 26.5147 124.423 25.2392V17.9052C124.423 14.557 122.297 12.7501 119.188 12.7501C117.886 12.7501 116.212 13.4675 115.149 14.6899C114.139 13.4144 112.784 12.7501 111.189 12.7501C109.781 12.7501 108.559 13.3347 107.629 14.3444C107.496 13.4409 106.858 12.9095 105.875 12.9095C104.759 12.9095 103.962 13.7598 103.962 15.0353V25.2392Z" fill="black"/>
<path d="M127.52 25.2392C127.52 26.5147 128.317 27.365 129.433 27.365C130.496 27.365 131.107 26.7804 131.346 25.7707C132.064 26.9399 133.552 27.5245 134.854 27.5245C138.707 27.5245 141.152 23.9372 141.152 20.3233C141.152 16.6031 139.106 12.7501 134.987 12.7501C133.658 12.7501 132.356 13.2018 131.346 14.0787V8.87044C131.346 7.59496 130.549 6.74463 129.433 6.74463C128.317 6.74463 127.52 7.59496 127.52 8.87044V25.2392ZM131.346 20.031C131.346 18.1709 132.303 16.2577 134.349 16.2577C136.342 16.2577 137.325 18.3569 137.325 20.1638C137.325 21.9442 136.342 24.0169 134.349 24.0169C132.25 24.0169 131.346 21.8911 131.346 20.031Z" fill="black"/>
<path d="M146.359 6.12614L147.516 7.98955C147.638 8.18442 147.76 8.25749 148.003 8.25749C148.21 8.25749 148.454 8.18442 148.454 8.05045C148.454 7.96519 148.381 7.81904 148.332 7.74597L147.248 6.0896C147.942 6.00435 148.503 5.63897 148.503 4.689C148.503 3.59288 147.881 3.23968 146.664 3.23968H145.056C144.861 3.23968 144.776 3.31276 144.776 3.49544V7.86776C144.776 8.11134 144.91 8.25749 145.178 8.25749C145.446 8.25749 145.58 8.11134 145.58 7.86776V6.12614H146.359ZM145.58 5.39539V3.97043H146.578C147.102 3.97043 147.699 4.01915 147.699 4.6281C147.699 5.34667 147.126 5.39539 146.505 5.39539H145.58ZM146.59 10.1087C149.026 10.1087 150.999 8.1357 150.999 5.69987C150.999 3.26404 149.026 1.29102 146.59 1.29102C144.155 1.29102 142.182 3.26404 142.182 5.69987C142.182 8.1357 144.155 10.1087 146.59 10.1087ZM146.59 9.18311C144.739 9.18311 143.18 7.62418 143.18 5.69987C143.18 3.77556 144.739 2.21663 146.59 2.21663C148.442 2.21663 150.001 3.77556 150.001 5.69987C150.001 7.62418 148.442 9.18311 146.59 9.18311Z" fill="black"/>
</svg>
