<svg width="192" height="40" viewBox="0 0 192 40" fill="none" xmlns="http://www.w3.org/2000/svg">
<mask id="mask0" mask-type="alpha" maskUnits="userSpaceOnUse" x="0" y="0" width="40" height="40">
<path fill-rule="evenodd" clip-rule="evenodd" d="M0 0H39.7273V39.6909H0V0Z" fill="white"/>
</mask>
<g mask="url(#mask0)">
<path fill-rule="evenodd" clip-rule="evenodd" d="M33.9091 33.8814C26.2 41.5912 13.6182 41.6632 5.83636 33.8814C-1.94545 26.0996 -1.94545 13.5912 5.83636 5.80868C13.5455 -1.90041 26.1273 -1.97314 33.9091 5.80868C37.6182 9.51777 39.7273 14.536 39.7273 19.845C39.7273 25.0814 37.6182 30.1723 33.9091 33.8814ZM21.8364 7.62699L31.8727 24.9361C32.4545 25.955 32.1636 27.3361 31.0727 27.9186C30.2 28.427 29.1091 28.2823 28.3818 27.627C25.9091 25.2277 23.5091 23.8452 21.1818 23.4815L21.6909 19.1179C22.3455 19.1906 23 19.3361 23.5818 19.5543L19.8727 13.0815L16.1636 19.4815C16.7455 19.2634 17.4 19.1906 18.0545 19.0459L18.5636 23.4095C16.2364 23.7732 13.8364 25.1543 11.3636 27.555C10.4909 28.427 9.10909 28.427 8.23637 27.555C7.50909 26.827 7.36364 25.6634 7.94546 24.7906L17.9091 7.55426C18.4909 6.53608 19.8727 6.17244 20.8909 6.75426C21.3273 6.97244 21.6182 7.26335 21.8364 7.62699ZM19.8727 36.427C29.0364 36.427 36.4545 29.0095 36.4545 19.8452C36.4545 10.6823 29.0364 3.26334 19.8727 3.26334C10.7091 3.26334 3.2909 10.6823 3.2909 19.8452C3.2909 24.2088 5.03636 28.427 8.16363 31.555C11.2909 34.6823 15.5091 36.427 19.8727 36.427Z" fill="#00A3DD"/>
</g>
<path fill-rule="evenodd" clip-rule="evenodd" d="M47.5645 26.7517C47.5645 27.8151 48.3619 28.6125 49.4253 28.6125C50.2227 28.6125 50.9316 28.1695 51.286 27.372L52.5266 24.4479H60.4128L61.6533 27.2834C62.0078 28.0809 62.628 28.6125 63.5141 28.6125C64.5774 28.6125 65.3749 27.7264 65.3749 26.7517C65.3749 26.4859 65.2863 26.2201 65.1977 25.9543L58.9064 11.8654C58.4634 10.8907 57.6659 10.2704 56.6026 10.2704H56.3368C55.2735 10.2704 54.476 10.8907 54.0329 11.8654L47.7417 25.9543C47.6531 26.2201 47.5645 26.4859 47.5645 26.7517ZM53.9443 20.9035L56.4254 14.9667L58.9064 20.9035H53.9443ZM72.2864 26.6631C72.2864 27.7264 73.1725 28.6125 74.2358 28.6125C75.2991 28.6125 76.1852 27.7264 76.1852 26.6631V23.1188H79.1979C83.1854 23.1188 86.4639 20.9921 86.4639 16.8275V16.7389C86.4639 13.1059 83.8942 10.5363 79.5524 10.5363H74.2358C73.1725 10.5363 72.2864 11.4223 72.2864 12.4857V26.6631ZM76.1852 19.5744V14.0806H79.1979C81.1473 14.0806 82.3879 15.0553 82.3879 16.8275V16.9161C82.3879 18.4225 81.2359 19.663 79.2865 19.663H76.1852V19.5744ZM93.1982 26.4859C93.1982 27.5492 94.0843 28.4353 95.1476 28.4353H104.452C105.426 28.4353 106.224 27.6378 106.224 26.6631C106.224 25.6884 105.426 24.8909 104.452 24.8909H97.1856V12.3084C97.1856 11.2451 96.2995 10.359 95.2362 10.359C94.1729 10.359 93.2868 11.2451 93.2868 12.3084V26.4859H93.1982ZM120.667 28.7897C126.161 28.7897 130.237 24.6251 130.237 19.4858V19.3972C130.237 14.2578 126.249 10.1818 120.756 10.1818C115.262 10.1818 111.186 14.3464 111.186 19.4858V19.5744C111.097 24.6251 115.085 28.7897 120.667 28.7897ZM120.667 25.1568C117.477 25.1568 115.262 22.5871 115.262 19.4858V19.3972C115.262 16.2959 117.477 13.8148 120.667 13.8148C123.857 13.8148 126.072 16.3845 126.072 19.4858V19.5744C126.072 22.5871 123.857 25.1568 120.667 25.1568ZM137.503 26.6631C137.503 27.7264 138.389 28.6125 139.452 28.6125C140.515 28.6125 141.402 27.7264 141.402 26.6631V17.8022L144.769 23.0302C145.212 23.6504 145.655 24.0048 146.452 24.0048C147.161 24.0048 147.693 23.6504 148.136 23.0302L151.592 17.7136V26.6631C151.592 27.7264 152.478 28.6125 153.541 28.6125C154.604 28.6125 155.49 27.7264 155.49 26.6631V12.397C155.49 11.3337 154.604 10.4476 153.541 10.4476H153.098C152.301 10.4476 151.769 10.8021 151.326 11.4223L146.541 19.22L141.756 11.4223C141.402 10.8021 140.781 10.359 139.984 10.359H139.541C138.477 10.359 137.591 11.2451 137.591 12.3084V26.6631H137.503ZM163.642 26.4859C163.642 27.5492 164.529 28.4353 165.592 28.4353H172.149C176.225 28.4353 178.883 26.7517 178.883 23.4732V23.3846C178.883 20.9921 177.643 19.7516 175.516 18.9541C176.757 18.2453 177.909 17.0933 177.909 15.0553V14.9667C177.909 13.7262 177.466 12.7515 176.668 11.954C175.605 10.8907 174.01 10.359 171.972 10.359H165.592C164.529 10.359 163.642 11.2451 163.642 12.3084V26.4859ZM167.453 17.8022V13.992H171.351C173.035 13.992 173.921 14.7009 173.921 15.8528C173.921 17.1819 172.858 17.7136 171.086 17.7136H167.453V17.8022ZM167.453 24.9796V20.9921H171.972C174.01 20.9921 174.896 21.701 174.896 22.9415V23.0302C174.896 24.3593 173.833 24.9796 172.06 24.9796H167.453Z" fill="#171816"/>
<path d="M187.153 9.82255L188.12 11.3804C188.222 11.5433 188.323 11.6044 188.527 11.6044C188.7 11.6044 188.904 11.5433 188.904 11.4313C188.904 11.36 188.843 11.2378 188.802 11.1767L187.896 9.792C188.476 9.72073 188.945 9.41527 188.945 8.62109C188.945 7.70473 188.425 7.40945 187.407 7.40945H186.063C185.9 7.40945 185.829 7.47054 185.829 7.62327V11.2785C185.829 11.4822 185.941 11.6044 186.165 11.6044C186.389 11.6044 186.501 11.4822 186.501 11.2785V9.82255H187.153ZM186.501 9.21164V8.02036H187.336C187.774 8.02036 188.273 8.06109 188.273 8.57018C188.273 9.17091 187.794 9.21164 187.275 9.21164H186.501ZM187.346 13.152C189.382 13.152 191.032 11.5025 191.032 9.46618C191.032 7.42982 189.382 5.78036 187.346 5.78036C185.31 5.78036 183.66 7.42982 183.66 9.46618C183.66 11.5025 185.31 13.152 187.346 13.152ZM187.346 12.3782C185.798 12.3782 184.495 11.0749 184.495 9.46618C184.495 7.85745 185.798 6.55418 187.346 6.55418C188.894 6.55418 190.197 7.85745 190.197 9.46618C190.197 11.0749 188.894 12.3782 187.346 12.3782Z" fill="black"/>
</svg>
